<svg width="323" height="323" xmlns="http://www.w3.org/2000/svg" xmlns:xlink="http://www.w3.org/1999/xlink" overflow="hidden"><defs><clipPath id="clip0"><rect x="0" y="0" width="323" height="323"/></clipPath></defs><g clip-path="url(#clip0)"><path d="M237.203 131.219C237.203 173.028 203.31 206.922 161.5 206.922 119.69 206.922 85.7969 173.028 85.7969 131.219 85.7969 89.4091 119.69 55.5156 161.5 55.5156 203.31 55.5156 237.203 89.4091 237.203 131.219Z" fill="#262626"/><path d="M307.859 157.382 307.859 115.144C313.719 113.055 317.953 107.503 317.953 100.932 317.953 92.5849 311.16 85.7918 302.813 85.7918 301.076 85.7918 299.431 86.1451 297.877 86.6851L275.262 58.4125C276.705 56.1061 277.578 53.3959 277.578 50.4688 277.578 42.1212 270.785 35.3281 262.438 35.3281 258.193 35.3281 254.368 37.0945 251.612 39.9157L211.827 21.5552C211.873 21.0959 211.969 20.6569 211.969 20.1875 211.969 11.84 205.176 5.04688 196.828 5.04688 190.257 5.04688 184.706 9.2812 182.616 15.1406L125.243 15.1406C123.154 9.2812 117.602 5.04688 111.031 5.04688 102.684 5.04688 95.8906 11.84 95.8906 20.1875 95.8906 20.8133 96.0017 21.4139 96.0774 22.0195L71.0449 34.5358C68.3195 31.9164 64.6353 30.2813 60.5625 30.2813 52.215 30.2813 45.4219 37.0743 45.4219 45.4219 45.4219 48.3491 46.295 51.0592 47.7333 53.3758L25.1183 81.6433C23.5639 81.1033 21.9236 80.75 20.1875 80.75 11.84 80.75 5.04688 87.5431 5.04688 95.8906 5.04688 102.462 9.2812 108.013 15.1406 110.103L15.1406 142.246C9.2812 144.331 5.04688 149.882 5.04688 156.453 5.04688 164.801 11.84 171.594 20.1875 171.594 25.7946 171.594 30.6396 168.495 33.2589 163.958L60.8098 168.969C61.9756 176.161 68.1833 181.688 75.7031 181.688 75.91 181.688 76.0968 181.637 76.2987 181.627L85.9281 205.701C82.7788 208.481 80.75 212.494 80.75 217.016 80.75 225.363 87.5431 232.156 95.8906 232.156 100.968 232.156 105.444 229.623 108.19 225.777L151.502 238.152C151.891 244.299 155.928 249.427 161.5 251.415L161.5 288.606C155.641 290.695 151.406 296.247 151.406 302.818 151.406 311.165 158.199 317.958 166.547 317.958 174.894 317.958 181.688 311.165 181.688 302.818 181.688 296.247 177.453 290.695 171.594 288.606L171.594 251.415C177.453 249.326 181.688 243.774 181.688 237.203 181.688 232.368 179.366 228.099 175.823 225.328L181.849 207.25 227.135 222.345C227.256 228.79 231.424 234.21 237.198 236.269L237.198 288.6C231.339 290.69 227.104 296.241 227.104 302.813 227.104 311.16 233.897 317.953 242.245 317.953 250.592 317.953 257.386 311.16 257.386 302.813 257.386 296.241 253.151 290.69 247.292 288.6L247.292 236.275C253.151 234.185 257.386 228.634 257.386 222.063 257.386 220.22 257.007 218.474 256.401 216.839L295.126 184.569C297.387 185.912 299.996 186.734 302.813 186.734 311.16 186.734 317.953 179.941 317.953 171.594 317.953 165.023 313.719 159.471 307.859 157.382ZM90.8135 166.264C90.8034 165.659 90.7125 165.078 90.6318 164.493L132.031 143.028 144.835 184.277 90.8135 166.264ZM79.5488 151.961 72.5539 98.3232 107.14 96.5921C109.335 101.912 114.478 105.677 120.524 105.919L128.998 133.227 86.0139 155.514C84.2071 153.834 82.0016 152.612 79.5488 151.961ZM34.1774 90.1372C33.8595 89.365 33.4507 88.6383 33.0116 87.9368L55.6267 59.6692C56.2121 59.8711 56.7874 60.0881 57.3981 60.2193L61.1278 88.7897 34.1774 90.1372ZM67.401 58.8567C72.3066 56.3484 75.7031 51.2964 75.7031 45.4219 75.7031 44.7961 75.5921 44.1955 75.5164 43.5899L100.549 31.0736C103.274 33.6929 106.958 35.3281 111.031 35.3281 114.13 35.3281 117.012 34.3844 119.414 32.7795L150.755 56.2828 128.064 77.4594C125.975 76.3794 123.638 75.7031 121.125 75.7031 114.292 75.7031 108.568 80.2806 106.691 86.5135L71.2417 88.285 67.401 58.8567ZM182.964 26.2286 158.25 49.2928 126.167 25.2344 182.616 25.2344C182.737 25.5675 182.823 25.9056 182.964 26.2286ZM197.035 97.9498 156.423 119.01 134.747 97.334C135.69 95.3557 136.266 93.1754 136.266 90.8438 136.266 88.6938 135.801 86.6599 134.994 84.8077L158.956 62.4399 197.58 91.409C197.136 92.8322 196.828 94.321 196.828 95.8906 196.828 96.5972 196.944 97.2684 197.035 97.9498ZM126.172 90.8438C126.172 93.6246 123.911 95.8906 121.125 95.8906 118.339 95.8906 116.078 93.6246 116.078 90.8438 116.078 88.0629 118.339 85.7969 121.125 85.7969 123.911 85.7969 126.172 88.0629 126.172 90.8438ZM147.026 123.881 138.098 128.509 131.996 108.851 147.026 123.881ZM141.136 138.305 154.51 131.37 178.155 155.015C177.216 156.988 176.641 159.168 176.641 161.5 176.641 166.34 178.962 170.605 182.505 173.375L175.47 194.481 156.625 188.198 141.136 138.305ZM191.781 166.547C188.995 166.547 186.734 164.281 186.734 161.5 186.734 158.719 188.995 156.453 191.781 156.453 194.567 156.453 196.828 158.719 196.828 161.5 196.828 164.281 194.567 166.547 191.781 166.547ZM191.781 146.359C189.45 146.359 187.269 146.93 185.296 147.878L163.912 126.495 201.663 106.918C204.368 109.452 207.977 111.031 211.969 111.031 214.785 111.031 217.394 110.209 219.655 108.861L242.634 128.009 201.84 150.261C199.155 147.863 195.657 146.359 191.781 146.359ZM255.261 63.7168C257.406 64.8877 259.828 65.6094 262.438 65.6094 264.174 65.6094 265.814 65.2561 267.368 64.7161L289.983 92.9887C288.545 95.3052 287.672 98.0103 287.672 100.938 287.672 101.75 287.788 102.537 287.914 103.315L252.167 122.816 226.125 101.114C226.731 99.479 227.109 97.7327 227.109 95.8906 227.109 93.8365 226.69 91.8834 225.949 90.0968L255.261 63.7168ZM295.131 158.618 260.505 129.76 292.759 112.167C294.208 113.469 295.898 114.478 297.771 115.144L297.771 157.382C296.842 157.715 295.964 158.124 295.131 158.618ZM217.016 95.8906C217.016 98.6715 214.755 100.938 211.969 100.938 209.183 100.938 206.922 98.6715 206.922 95.8906 206.922 93.1098 209.183 90.8438 211.969 90.8438 214.755 90.8438 217.016 93.1098 217.016 95.8906ZM250.971 134.964 287.137 165.103 208.779 157.977 250.971 134.964ZM307.859 100.938C307.859 103.718 305.598 105.984 302.813 105.984 300.027 105.984 297.766 103.718 297.766 100.938 297.766 98.1567 300.027 95.8906 302.813 95.8906 305.598 95.8906 307.859 98.1567 307.859 100.938ZM262.438 45.4219C265.223 45.4219 267.484 47.6879 267.484 50.4688 267.484 53.2496 265.223 55.5156 262.438 55.5156 259.652 55.5156 257.391 53.2496 257.391 50.4688 257.391 47.6879 259.652 45.4219 262.438 45.4219ZM247.433 49.101C247.393 49.5603 247.297 49.9994 247.297 50.4688 247.297 52.5228 247.716 54.476 248.458 56.2626L219.14 82.6426C217 81.4717 214.578 80.75 211.969 80.75 208.87 80.75 205.988 81.6938 203.586 83.2987L166.451 55.445 189.894 33.5668C191.978 34.6569 194.315 35.3281 196.828 35.3281 201.073 35.3281 204.903 33.5617 207.654 30.7405L247.433 49.101ZM196.828 15.1406C199.614 15.1406 201.875 17.4067 201.875 20.1875 201.875 22.9683 199.614 25.2344 196.828 25.2344 194.042 25.2344 191.781 22.9683 191.781 20.1875 191.781 17.4067 194.042 15.1406 196.828 15.1406ZM111.031 15.1406C113.817 15.1406 116.078 17.4067 116.078 20.1875 116.078 22.9683 113.817 25.2344 111.031 25.2344 108.245 25.2344 105.984 22.9683 105.984 20.1875 105.984 17.4067 108.245 15.1406 111.031 15.1406ZM60.5625 40.375C63.3484 40.375 65.6094 42.641 65.6094 45.4219 65.6094 48.2027 63.3484 50.4688 60.5625 50.4688 57.7766 50.4688 55.5156 48.2027 55.5156 45.4219 55.5156 42.641 57.7766 40.375 60.5625 40.375ZM20.1875 90.8438C22.9734 90.8438 25.2344 93.1098 25.2344 95.8906 25.2344 98.6715 22.9734 100.938 20.1875 100.938 17.4016 100.938 15.1406 98.6715 15.1406 95.8906 15.1406 93.1098 17.4016 90.8438 20.1875 90.8438ZM20.1875 161.5C17.4016 161.5 15.1406 159.234 15.1406 156.453 15.1406 153.672 17.4016 151.406 20.1875 151.406 22.9734 151.406 25.2344 153.672 25.2344 156.453 25.2344 159.234 22.9734 161.5 20.1875 161.5ZM25.2344 142.241 25.2344 110.098C29.7463 108.488 33.2337 104.829 34.6216 100.216L62.4399 98.8229 69.4753 152.774C66.5784 154.086 64.2114 156.297 62.6317 159.032L35.0859 154.031C34.1926 148.54 30.357 144.068 25.2344 142.241ZM70.6563 166.547C70.6563 163.766 72.9173 161.5 75.7031 161.5 78.489 161.5 80.75 163.766 80.75 166.547 80.75 169.328 78.489 171.594 75.7031 171.594 72.9173 171.594 70.6563 169.328 70.6563 166.547ZM85.6657 177.857C86.3672 177.241 87.0031 176.56 87.5784 175.823L148.519 196.137 157.518 225.121C156.266 226.06 155.156 227.165 154.248 228.437L110.935 216.062C110.436 208.168 103.915 201.875 95.8906 201.875 95.6887 201.875 95.497 201.925 95.3001 201.936L85.6657 177.857ZM95.8906 222.063C93.1048 222.063 90.8438 219.796 90.8438 217.016 90.8438 214.235 93.1048 211.969 95.8906 211.969 98.6765 211.969 100.938 214.235 100.938 217.016 100.938 219.796 98.6765 222.063 95.8906 222.063ZM166.547 307.859C163.761 307.859 161.5 305.593 161.5 302.813 161.5 300.032 163.761 297.766 166.547 297.766 169.333 297.766 171.594 300.032 171.594 302.813 171.594 305.593 169.333 307.859 166.547 307.859ZM166.547 242.25C163.761 242.25 161.5 239.984 161.5 237.203 161.5 234.422 163.761 232.156 166.547 232.156 169.333 232.156 171.594 234.422 171.594 237.203 171.594 239.984 169.333 242.25 166.547 242.25ZM166.718 220.73 160.304 200.068 172.275 204.06 166.718 220.73ZM192.064 176.61C198.029 176.499 203.137 172.926 205.499 167.814L288.197 175.333C288.328 175.838 288.479 176.333 288.656 176.817L249.931 209.087C247.67 207.745 245.066 206.922 242.25 206.922 237.415 206.922 233.145 209.243 230.375 212.786L185.044 197.676 192.064 176.61ZM242.25 307.859C239.464 307.859 237.203 305.593 237.203 302.813 237.203 300.032 239.464 297.766 242.25 297.766 245.036 297.766 247.297 300.032 247.297 302.813 247.297 305.593 245.036 307.859 242.25 307.859ZM242.25 227.109C239.464 227.109 237.203 224.843 237.203 222.063 237.203 219.282 239.464 217.016 242.25 217.016 245.036 217.016 247.297 219.282 247.297 222.063 247.297 224.843 245.036 227.109 242.25 227.109ZM302.813 176.641C300.027 176.641 297.766 174.375 297.766 171.594 297.766 168.813 300.027 166.547 302.813 166.547 305.598 166.547 307.859 168.813 307.859 171.594 307.859 174.375 305.598 176.641 302.813 176.641Z" fill="#262626"/><path d="M15.1406 5.04688 25.2344 5.04688 25.2344 15.1406 15.1406 15.1406Z" fill="#262626"/><path d="M15.1406 25.2344 25.2344 25.2344 25.2344 35.3281 15.1406 35.3281Z" fill="#262626"/><path d="M25.2344 15.1406 35.3281 15.1406 35.3281 25.2344 25.2344 25.2344Z" fill="#262626"/><path d="M5.04688 15.1406 15.1406 15.1406 15.1406 25.2344 5.04688 25.2344Z" fill="#262626"/><path d="M267.484 237.203 277.578 237.203 277.578 247.297 267.484 247.297Z" fill="#262626"/><path d="M267.484 257.391 277.578 257.391 277.578 267.484 267.484 267.484Z" fill="#262626"/><path d="M277.578 247.297 287.672 247.297 287.672 257.391 277.578 257.391Z" fill="#262626"/><path d="M257.391 247.297 267.484 247.297 267.484 257.391 257.391 257.391Z" fill="#262626"/><path d="M297.766 25.2344 307.859 25.2344 307.859 35.3281 297.766 35.3281Z" fill="#262626"/><path d="M297.766 45.4219 307.859 45.4219 307.859 55.5156 297.766 55.5156Z" fill="#262626"/><path d="M307.859 35.3281 317.953 35.3281 317.953 45.4219 307.859 45.4219Z" fill="#262626"/><path d="M287.672 35.3281 297.766 35.3281 297.766 45.4219 287.672 45.4219Z" fill="#262626"/><path d="M65.6094 247.297 75.7031 247.297 75.7031 257.391 65.6094 257.391Z" fill="#262626"/><path d="M65.6094 267.484 75.7031 267.484 75.7031 277.578 65.6094 277.578Z" fill="#262626"/><path d="M75.7031 257.391 85.7969 257.391 85.7969 267.484 75.7031 267.484Z" fill="#262626"/><path d="M55.5156 257.391 65.6094 257.391 65.6094 267.484 55.5156 267.484Z" fill="#262626"/><path d="M35.3281 191.781 45.4219 191.781 45.4219 201.875 35.3281 201.875Z" fill="#262626"/><path d="M35.3281 211.969 45.4219 211.969 45.4219 222.063 35.3281 222.063Z" fill="#262626"/><path d="M45.4219 201.875 55.5156 201.875 55.5156 211.969 45.4219 211.969Z" fill="#262626"/><path d="M25.2344 201.875 35.3281 201.875 35.3281 211.969 25.2344 211.969Z" fill="#262626"/></g></svg>